<svg id="Layer_1" data-name="Layer 1" xmlns="http://www.w3.org/2000/svg" viewBox="0 0 40.9 41.5"><defs><style>.cls-1{fill:#fff;}</style></defs><path class="cls-1" d="M31.15,31.17c-3.14-.58-5.8-2.1-8.82-2.82v5c4.1,1.06,8.37,3.21,12.62,1.44a15.2,15.2,0,0,0,4.21-5.43A11.69,11.69,0,0,1,31.15,31.17Z"/><path class="cls-1" d="M18.33,33.37v-5c-3,.72-5.68,2.24-8.82,2.82-2.88.53-5.42-.39-7.85-1.81a16.75,16.75,0,0,0,4.05,5.47C10,36.59,14.22,34.43,18.33,33.37Z"/><path class="cls-1" d="M8,37.42a17.63,17.63,0,0,0,10.38,4.07v-6C15,36.36,11.59,37.9,8,37.42Z"/><path class="cls-1" d="M22.33,35.45v6A21.54,21.54,0,0,0,33,37.42C29.32,37.88,25.81,36.37,22.33,35.45Z"/><path class="cls-1" d="M40.89,20.84A21,21,0,0,0,35,6.17,20.08,20.08,0,0,0,6.16,6,21.22,21.22,0,0,0,0,20.7v.05H0v.4H0a20.49,20.49,0,0,0,.9,5.53,11.13,11.13,0,0,0,8.41,2.45c3.22-.39,5.95-2.19,9.07-2.84h0s0-5.32,0-5.32a5.18,5.18,0,0,1,3.91,0v5.19c3.91,1.25,7.66,3.57,12,2.93a12,12,0,0,0,5.53-2.27,15.36,15.36,0,0,0,1.08-5.62c0-.17,0-.35,0-.35Zm-1.36,1.09a11.71,11.71,0,0,1-7.46,2,43.5,43.5,0,0,1-9.43-2.83c-.73-.28-.74-1.73-.64-2.62,0-.29.46-.14.72-.11A31.77,31.77,0,0,1,31.4,21c.83-.72,2.65-1.9,2.65-1.9s-1.39-1.51-2-2.31H22.2a15.17,15.17,0,0,0-.05-5c-.28-1.88-.93-3.62-.54-5.5a2.43,2.43,0,0,0,.67-1.6,1.93,1.93,0,0,0-1.92-2,2,2,0,0,0-2,2A2.49,2.49,0,0,0,19,6.26c.48,1.85.14,2.66-.29,5.47-.26,1.73-.51,4.29-.16,5.06H8.72L7,19.08A17.91,17.91,0,0,1,9.18,21c2.23-.64,4.22-1.73,6.58-2.18,1-.19,2.77-.62,3-.42s.34,2.35-.68,2.76a22.11,22.11,0,0,1-2.33.82c-3.14.85-6.07,2.42-9.35,2.11a11.52,11.52,0,0,1-5-2c-.05-.52-.05-1.13-.05-1.13a19.83,19.83,0,0,1,5.78-14A18.75,18.75,0,0,1,34,7.08a19.73,19.73,0,0,1,5.55,13.8S39.56,21.48,39.53,21.93Z"/></svg>