<?xml version="1.0" encoding="UTF-8" standalone="no"?>
<!-- Created with Inkscape (http://www.inkscape.org/) -->

<svg
   xmlns:dc="http://purl.org/dc/elements/1.1/"
   xmlns:cc="http://creativecommons.org/ns#"
   xmlns:rdf="http://www.w3.org/1999/02/22-rdf-syntax-ns#"
   xmlns:svg="http://www.w3.org/2000/svg"
   xmlns="http://www.w3.org/2000/svg"
   xmlns:sodipodi="http://sodipodi.sourceforge.net/DTD/sodipodi-0.dtd"
   xmlns:inkscape="http://www.inkscape.org/namespaces/inkscape"
   version="1.1"
   id="svg2"
   xml:space="preserve"
   width="248.44"
   height="115.01333"
   viewBox="0 0 248.44 115.01333"
   sodipodi:docname="TU_Library &amp; Archives logo Colour.svg"
   inkscape:version="0.92.3 (2405546, 2018-03-11)"><metadata
     id="metadata8"><rdf:RDF><cc:Work
         rdf:about=""><dc:format>image/svg+xml</dc:format><dc:type
           rdf:resource="http://purl.org/dc/dcmitype/StillImage" /><dc:title></dc:title></cc:Work></rdf:RDF></metadata><defs
     id="defs6" /><sodipodi:namedview
     pagecolor="#000000"
     bordercolor="#666666"
     borderopacity="1"
     objecttolerance="10"
     gridtolerance="10"
     guidetolerance="10"
     inkscape:pageopacity="0"
     inkscape:pageshadow="2"
     inkscape:window-width="1680"
     inkscape:window-height="987"
     id="namedview4"
     showgrid="false"
     inkscape:zoom="1.4087908"
     inkscape:cx="124.22"
     inkscape:cy="57.506664"
     inkscape:window-x="-8"
     inkscape:window-y="-8"
     inkscape:window-maximized="1"
     inkscape:current-layer="g10" /><g
     id="g10"
     inkscape:groupmode="layer"
     inkscape:label="ink_ext_XXXXXX"
     transform="matrix(1.3333333,0,0,-1.3333333,0,115.01333)"><g
       id="g12"
       transform="scale(0.1)"><path
         d="m 258.109,637.254 c 0,-2.293 -2.175,-3.445 -6.527,-3.445 -1.949,0 -3.137,0.851 -3.633,2.55 -5.195,17.012 -12.629,29.043 -22.297,36.098 -9.66,7.066 -23.949,10.59 -42.918,10.59 h -17.031 c -5.91,0 -9.965,-0.981 -12.133,-2.914 -2.168,-1.934 -3.261,-5.528 -3.261,-10.867 V 485.168 c 0,-8.355 1.043,-14.254 3.168,-17.727 2.097,-3.418 5.867,-6.156 11.246,-8.156 5.394,-1.957 13.097,-3.586 23.132,-4.773 1.926,-0.239 2.922,-1.852 2.922,-4.832 0,-3.332 -0.996,-5.035 -2.922,-5.035 -8.089,0 -17.781,0.355 -29.042,1.054 -10.641,0.707 -19.559,1.016 -26.739,1.016 -7.418,0 -16.48,-0.309 -27.289,-1.016 -11.2342,-0.699 -20.8983,-1.054 -29.0037,-1.054 -1.9454,0 -2.8868,1.703 -2.8868,5.035 0,2.98 0.9414,4.593 2.8868,4.832 14.6367,1.691 24.5587,4.386 29.8237,8.164 5.262,3.734 7.915,11.222 7.915,22.492 v 184.098 c 0,5.339 -1.11,8.933 -3.262,10.867 -2.184,1.933 -6.309,2.914 -12.3596,2.914 H 83.7891 c -17.0547,0 -32.5196,-4.301 -46.4375,-12.934 C 23.4844,661.5 14.4023,650.305 10.1758,636.551 9.55469,634.723 8.21875,633.809 6.16016,633.809 2.05469,633.809 0,635.133 0,637.785 c 6.77344,18.219 13.1484,38.813 19.1953,61.852 16.4375,-3.457 54.0508,-5.192 112.8357,-5.192 60.332,0 98.727,1.735 115.196,5.192 1.687,-15.672 5.316,-36.473 10.882,-62.383"
         style="fill:#61849c;fill-opacity:1;fill-rule:nonzero;stroke:none"
         id="path14"
         inkscape:connector-curvature="0" /><path
         d="m 767.191,504.219 c -9.789,-20.813 -17.789,-40.672 -23.945,-59.574 -45.492,1.421 -77.906,2.07 -97.215,2.07 -19.054,0 -51.445,-0.649 -97.109,-2.07 -1.93,0 -2.906,1.703 -2.906,5.035 0,2.98 0.976,4.593 2.906,4.832 10.019,1.187 17.719,2.816 23.016,4.773 5.347,2 9.035,4.715 11.171,8.113 2.121,3.34 3.18,9.297 3.18,17.77 v 170.691 c 0,8.336 -1.012,14.239 -3.004,17.684 -1.972,3.406 -5.633,6.184 -10.98,8.23 -5.328,2.071 -13.098,3.68 -23.383,4.907 -1.93,0 -2.906,1.64 -2.906,4.918 0,3.277 0.976,4.937 2.906,4.937 30.414,-1.398 61.605,-2.09 93.437,-2.09 32.071,0 63.227,0.692 93.516,2.09 2.758,-18.73 6.805,-37.211 12.102,-55.457 0,-2.445 -2.133,-3.644 -6.469,-3.644 -2.106,0 -3.403,0.859 -3.883,2.578 -8.91,28.699 -27.949,43.035 -57.113,43.035 h -36.469 c -13.996,0 -20.969,-7.25 -20.969,-21.797 v -80.832 h 45.625 c 12.129,0 20.367,2.82 24.664,8.367 4.328,5.617 7.309,15.504 9.016,29.703 0,1.93 1.613,2.899 4.906,2.899 3.309,0 4.942,-0.969 4.942,-2.899 0,-6.086 -0.368,-13.703 -1.039,-22.886 -0.723,-8.836 -1.032,-16.071 -1.032,-21.641 0,-5.688 0.309,-12.969 1.032,-21.777 0.671,-9.457 1.039,-17.207 1.039,-23.25 0,-1.926 -1.633,-2.911 -4.942,-2.911 -3.293,0 -4.906,0.985 -4.906,2.911 -1.832,14.828 -5.031,25.218 -9.559,31.152 -4.554,5.969 -12.597,8.953 -24.121,8.953 h -45.625 v -89.457 c 0,-14.277 7.02,-21.457 21.063,-21.457 h 39.441 c 14.399,0 28.649,4.668 42.824,14.063 14.09,9.367 24.512,21.07 31.141,35.093 0.48,1.086 1.508,1.641 3.082,1.641 1.684,0 3.199,-0.453 4.527,-1.348 1.348,-0.933 2.039,-2.008 2.039,-3.355"
         style="fill:#61849c;fill-opacity:1;fill-rule:nonzero;stroke:none"
         id="path16"
         inkscape:connector-curvature="0" /><path
         d="m 1108.19,691.504 c 0,-2.992 -0.96,-4.578 -2.91,-4.824 -15.14,-1.703 -25.5,-4.461 -31.14,-8.364 -5.63,-3.855 -8.54,-11.285 -8.77,-22.265 l -4.15,-213.496 c 0,-2.41 -1.44,-3.598 -4.33,-3.598 -1.48,0 -3.37,0.961 -5.78,2.891 L 864.285,652.789 861.684,485.117 c -0.141,-0.961 -0.196,-1.855 -0.196,-2.687 0,-9.207 2.922,-15.68 8.703,-19.512 5.829,-3.781 16.278,-6.598 31.399,-8.406 1.926,-0.239 2.887,-1.852 2.887,-4.832 0,-3.332 -0.961,-5.035 -2.887,-5.035 -6.262,0 -14.93,0.355 -25.942,1.054 -10.273,0.707 -18.168,1.016 -23.691,1.016 -6.016,0 -14.125,-0.309 -24.434,-1.016 -9.918,-0.699 -17.566,-1.054 -23.015,-1.054 -1.961,0 -2.922,1.703 -2.922,5.035 0,2.98 1.094,4.593 3.277,4.832 14.977,1.808 25.262,4.625 30.856,8.406 5.5,3.832 8.488,11.242 8.875,22.25 l 6.207,170.691 v 1.618 c 0,9.804 -2.856,16.652 -8.539,20.492 -5.66,3.879 -16.258,6.769 -31.719,8.711 -1.699,0 -2.551,1.64 -2.551,4.918 0,3.277 0.942,4.937 2.891,4.937 4.238,0 10.156,-0.355 17.769,-1.051 6.786,-0.703 11.879,-1.039 15.25,-1.039 4.203,0 9.305,0.336 15.266,1.039 6.07,0.696 11.281,1.051 15.602,1.051 L 1049.3,501.578 v 154.426 c 0,10.305 -2.94,17.539 -8.81,21.699 -5.85,4.16 -16.72,7.156 -32.56,8.977 -1.93,0.246 -2.89,1.832 -2.89,4.824 0,3.359 0.96,5.031 2.89,5.031 6.54,0 15.26,-0.355 26.13,-1.051 10.16,-0.703 18.03,-1.039 23.61,-1.039 6.07,0 14.29,0.336 24.55,1.039 9.91,0.696 17.59,1.051 23.06,1.051 1.95,0 2.91,-1.672 2.91,-5.031"
         style="fill:#61849c;fill-opacity:1;fill-rule:nonzero;stroke:none"
         id="path18"
         inkscape:connector-curvature="0" /><path
         d="m 1384.36,637.254 c 0,-2.293 -2.16,-3.445 -6.49,-3.445 -1.96,0 -3.16,0.851 -3.63,2.55 -5.21,17.012 -12.63,29.043 -22.28,36.098 -9.69,7.066 -23.99,10.59 -42.96,10.59 h -17.02 c -5.92,0 -9.96,-0.981 -12.13,-2.914 -2.2,-1.934 -3.28,-5.528 -3.28,-10.867 V 485.168 c 0,-8.355 1.06,-14.254 3.19,-17.727 2.08,-3.418 5.87,-6.156 11.23,-8.156 5.39,-1.957 13.08,-3.586 23.14,-4.773 1.94,-0.239 2.89,-1.852 2.89,-4.832 0,-3.332 -0.95,-5.035 -2.89,-5.035 -8.12,0 -17.77,0.355 -29.04,1.054 -10.67,0.707 -19.59,1.016 -26.73,1.016 -7.41,0 -16.49,-0.309 -27.3,-1.016 -11.26,-0.699 -20.92,-1.054 -29.02,-1.054 -1.93,0 -2.89,1.703 -2.89,5.035 0,2.98 0.96,4.593 2.89,4.832 14.64,1.691 24.57,4.386 29.84,8.164 5.27,3.734 7.91,11.222 7.91,22.492 v 184.098 c 0,5.339 -1.11,8.933 -3.29,10.867 -2.16,1.933 -6.26,2.914 -12.3,2.914 h -14.16 c -17.07,0 -32.51,-4.301 -46.39,-12.934 -13.91,-8.613 -22.97,-19.808 -27.21,-33.562 -0.63,-1.828 -1.95,-2.742 -4,-2.742 -4.12,0 -6.16,1.324 -6.16,3.976 6.76,18.219 13.15,38.813 19.18,61.852 16.42,-3.457 54.06,-5.192 112.83,-5.192 60.34,0 98.75,1.735 115.21,5.192 1.66,-15.672 5.3,-36.473 10.86,-62.383"
         style="fill:#61849c;fill-opacity:1;fill-rule:nonzero;stroke:none"
         id="path20"
         inkscape:connector-curvature="0" /><path
         d="m 391.434,573.277 c -10.688,0 -19.579,0.485 -26.625,1.446 v 81.086 c 0,8.871 0.898,15.062 2.66,18.605 1.738,3.508 5.285,6.086 10.578,7.734 5.254,1.61 13.023,2.461 23.211,2.461 30.996,0 46.484,-17.722 46.484,-53.203 0,-20.301 -4.492,-35.058 -13.496,-44.261 -8.976,-9.247 -23.254,-13.868 -42.812,-13.868 z m 308.66,-199.949 c -25.539,-15.504 -46.793,-27.16 -95.379,-8.398 -24.063,9.336 -42.684,24.715 -66.707,50.461 -8.012,8.547 -16.633,19.328 -25.031,30.652 0.113,-0.02 0.195,-0.02 0.308,-0.02 -1.824,2.309 -3.691,4.739 -5.555,7.219 -7.109,9.852 -13.953,19.762 -19.89,28.723 l -25.457,41.187 c -0.641,1.082 -1.379,2.356 -1.988,3.411 l -0.098,-0.04 -27.192,44.004 c 16.743,5.985 30.004,14.5 39.809,25.543 9.824,11.012 14.723,23.028 14.723,35.914 0,20.465 -7.387,36.317 -22.141,47.598 -14.777,11.305 -35.633,16.953 -62.644,16.953 -8.125,0 -17.805,-0.355 -29.039,-1.051 -10.825,-0.703 -19.887,-1.039 -27.262,-1.039 -7.391,0 -16.399,0.336 -27.059,1.039 -11.125,0.696 -20.754,1.051 -28.844,1.051 -1.929,0 -2.89,-1.66 -2.89,-4.937 0,-3.278 0.961,-4.918 2.89,-4.918 10.29,-1.227 18.079,-2.836 23.418,-4.907 5.297,-2.046 8.961,-4.824 10.961,-8.23 1.973,-3.445 2.989,-9.348 2.989,-17.684 V 485.168 c 0,-8.473 -1.043,-14.43 -3.164,-17.77 -2.129,-3.398 -5.844,-6.113 -11.172,-8.113 -5.313,-1.957 -12.981,-3.586 -23.032,-4.773 -1.929,-0.239 -2.89,-1.852 -2.89,-4.832 0,-3.332 0.961,-5.035 2.89,-5.035 8.09,0 17.719,0.355 28.844,1.054 10.594,0.707 19.606,1.016 26.918,1.016 7.367,0 16.379,-0.309 27.129,-1.016 11.203,-0.699 20.899,-1.054 29.024,-1.054 1.929,0 2.902,1.703 2.902,5.035 0,2.98 -1.055,4.593 -3.098,4.832 -10.047,1.187 -17.75,2.769 -23.144,4.773 -5.36,2 -9.121,4.715 -11.227,8.133 -2.113,3.449 -3.187,9.32 -3.187,17.648 v 77.758 c 14.449,0 24.046,-1.746 28.843,-5.25 4.805,-3.504 11.075,-11.402 18.844,-23.711 l 23.774,-38.453 0.914,-1.512 -0.719,-0.128 c 6.801,-10.766 13.64,-21.387 20.555,-31.938 l 5.992,-9.703 4.621,-7.484 c 0.047,0 0.082,0 0.082,0 0.254,0 0.594,0.023 0.863,0.023 5.844,-8.645 11.641,-17.289 17.727,-25.711 21.437,-29.379 47.429,-55.023 82.695,-68.652 60.469,-23.352 102.199,-5.196 134.727,17.293 l -3.633,5.73"
         style="fill:#61849c;fill-opacity:1;fill-rule:nonzero;stroke:none"
         id="path22"
         inkscape:connector-curvature="0" /><path
         d="m 838.891,329.602 c 0,-22.336 -11.286,-34.297 -30.883,-34.297 -19.606,0 -30.883,11.961 -30.883,34.297 v 46.605 h 11.395 v -45.133 c 0,-15.273 4.785,-25.742 19.488,-25.742 14.703,0 19.488,10.469 19.488,25.742 v 45.133 h 11.395 v -46.605"
         style="fill:#7b892d;fill-opacity:1;fill-rule:nonzero;stroke:none"
         id="path24"
         inkscape:connector-curvature="0" /><path
         d="m 905.887,376.207 h 15.5 l 35.101,-64.039 h 0.227 v 64.039 h 11.398 V 296.66 H 953.52 l -36.004,65.41 h -0.231 v -65.41 h -11.398 v 79.547"
         style="fill:#7b892d;fill-opacity:1;fill-rule:nonzero;stroke:none"
         id="path26"
         inkscape:connector-curvature="0" /><path
         d="m 1039.55,376.207 h 11.4 V 296.66 h -11.4 v 79.547"
         style="fill:#7b892d;fill-opacity:1;fill-rule:nonzero;stroke:none"
         id="path28"
         inkscape:connector-curvature="0" /><path
         d="m 1154.42,296.66 h -14.24 l -29.97,79.547 h 12.76 l 24.49,-69.508 h 0.24 l 25.18,69.508 h 11.97 l -30.43,-79.547"
         style="fill:#7b892d;fill-opacity:1;fill-rule:nonzero;stroke:none"
         id="path30"
         inkscape:connector-curvature="0" /><path
         d="m 1246.38,376.207 h 44.56 V 366.18 h -33.16 v -23.25 h 30.19 v -10.02 h -30.19 v -26.211 h 33.16 V 296.66 h -44.56 v 79.547"
         style="fill:#7b892d;fill-opacity:1;fill-rule:nonzero;stroke:none"
         id="path32"
         inkscape:connector-curvature="0" /><path
         d="m 1371.17,342.012 h 9.68 c 10.82,0 17.2,4.804 17.2,12.422 0,7.195 -5.46,11.746 -15.95,11.746 h -10.93 z m -11.4,34.195 h 19.49 c 15.72,0 30.87,-2.5 30.87,-21.539 0,-9.676 -7.18,-16.523 -16.41,-18.105 v -0.235 c 3.53,-1.367 5.24,-3.074 7.75,-7.969 l 15.04,-31.699 h -12.98 l -12.2,27.578 c -3.54,7.754 -7.29,7.754 -13.33,7.754 h -6.83 V 296.66 h -11.4 v 79.547"
         style="fill:#7b892d;fill-opacity:1;fill-rule:nonzero;stroke:none"
         id="path34"
         inkscape:connector-curvature="0" /><path
         d="m 1517.48,364.25 c -5.82,2.27 -9.01,3.301 -14.93,3.301 -6.38,0 -13.9,-2.289 -13.9,-10.606 0,-15.265 34.18,-11.738 34.18,-37.941 0,-16.973 -13.1,-23.699 -29.06,-23.699 -5.57,0 -11.05,1.59 -16.3,3.3 l 1.15,10.594 c 3.87,-1.601 10.71,-3.867 16.52,-3.867 6.49,0 15.62,3.652 15.62,12.981 0,17.781 -34.19,12.878 -34.19,37.617 0,14.125 11.16,21.644 25.52,21.644 5.25,0 11.52,-0.914 16.99,-2.855 l -1.6,-10.469"
         style="fill:#7b892d;fill-opacity:1;fill-rule:nonzero;stroke:none"
         id="path36"
         inkscape:connector-curvature="0" /><path
         d="M 1589.6,376.207 H 1601 V 296.66 h -11.4 v 79.547"
         style="fill:#7b892d;fill-opacity:1;fill-rule:nonzero;stroke:none"
         id="path38"
         inkscape:connector-curvature="0" /><path
         d="m 1684.41,366.18 h -24.72 v 10.027 h 60.86 V 366.18 h -24.74 v -69.52 h -11.4 v 69.52"
         style="fill:#7b892d;fill-opacity:1;fill-rule:nonzero;stroke:none"
         id="path40"
         inkscape:connector-curvature="0" /><path
         d="m 1798.6,329.934 -31.11,46.273 h 13.32 l 23.72,-35.66 23.12,35.66 H 1841 l -31.01,-46.273 V 296.66 h -11.39 v 33.274"
         style="fill:#7b892d;fill-opacity:1;fill-rule:nonzero;stroke:none"
         id="path42"
         inkscape:connector-curvature="0" /><path
         d="m 838.891,329.602 c 0,-22.336 -11.286,-34.297 -30.883,-34.297 -19.606,0 -30.883,11.961 -30.883,34.297 v 46.605 h 11.395 v -45.133 c 0,-15.273 4.785,-25.742 19.488,-25.742 14.703,0 19.488,10.469 19.488,25.742 v 45.133 h 11.395 v -46.605"
         style="fill:#00452a;fill-opacity:1;fill-rule:nonzero;stroke:none"
         id="path44"
         inkscape:connector-curvature="0" /><path
         d="m 905.887,376.207 h 15.5 l 35.101,-64.039 h 0.227 v 64.039 h 11.398 V 296.66 H 953.52 l -36.004,65.41 h -0.231 v -65.41 h -11.398 v 79.547"
         style="fill:#00452a;fill-opacity:1;fill-rule:nonzero;stroke:none"
         id="path46"
         inkscape:connector-curvature="0" /><path
         d="m 1039.55,376.207 h 11.4 V 296.66 h -11.4 v 79.547"
         style="fill:#00452a;fill-opacity:1;fill-rule:nonzero;stroke:none"
         id="path48"
         inkscape:connector-curvature="0" /><path
         d="m 1154.42,296.66 h -14.24 l -29.97,79.547 h 12.76 l 24.49,-69.508 h 0.24 l 25.18,69.508 h 11.97 l -30.43,-79.547"
         style="fill:#00452a;fill-opacity:1;fill-rule:nonzero;stroke:none"
         id="path50"
         inkscape:connector-curvature="0" /><path
         d="m 1246.38,376.207 h 44.56 V 366.18 h -33.16 v -23.25 h 30.19 v -10.02 h -30.19 v -26.211 h 33.16 V 296.66 h -44.56 v 79.547"
         style="fill:#00452a;fill-opacity:1;fill-rule:nonzero;stroke:none"
         id="path52"
         inkscape:connector-curvature="0" /><path
         d="m 1371.17,342.012 h 9.68 c 10.82,0 17.2,4.804 17.2,12.422 0,7.195 -5.46,11.746 -15.95,11.746 h -10.93 z m -11.4,34.195 h 19.49 c 15.72,0 30.87,-2.5 30.87,-21.539 0,-9.676 -7.18,-16.523 -16.41,-18.105 v -0.235 c 3.53,-1.367 5.24,-3.074 7.75,-7.969 l 15.04,-31.699 h -12.98 l -12.2,27.578 c -3.54,7.754 -7.29,7.754 -13.33,7.754 h -6.83 V 296.66 h -11.4 v 79.547"
         style="fill:#00452a;fill-opacity:1;fill-rule:nonzero;stroke:none"
         id="path54"
         inkscape:connector-curvature="0" /><path
         d="m 1517.48,364.25 c -5.82,2.27 -9.01,3.301 -14.93,3.301 -6.38,0 -13.9,-2.289 -13.9,-10.606 0,-15.265 34.18,-11.738 34.18,-37.941 0,-16.973 -13.1,-23.699 -29.06,-23.699 -5.57,0 -11.05,1.59 -16.3,3.3 l 1.15,10.594 c 3.87,-1.601 10.71,-3.867 16.52,-3.867 6.49,0 15.62,3.652 15.62,12.981 0,17.781 -34.19,12.878 -34.19,37.617 0,14.125 11.16,21.644 25.52,21.644 5.25,0 11.52,-0.914 16.99,-2.855 l -1.6,-10.469"
         style="fill:#00452a;fill-opacity:1;fill-rule:nonzero;stroke:none"
         id="path56"
         inkscape:connector-curvature="0" /><path
         d="M 1589.6,376.207 H 1601 V 296.66 h -11.4 v 79.547"
         style="fill:#00452a;fill-opacity:1;fill-rule:nonzero;stroke:none"
         id="path58"
         inkscape:connector-curvature="0" /><path
         d="m 1684.41,366.18 h -24.72 v 10.027 h 60.86 V 366.18 h -24.74 v -69.52 h -11.4 v 69.52"
         style="fill:#00452a;fill-opacity:1;fill-rule:nonzero;stroke:none"
         id="path60"
         inkscape:connector-curvature="0" /><path
         d="m 1798.6,329.934 -31.11,46.273 h 13.32 l 23.72,-35.66 23.12,35.66 H 1841 l -31.01,-46.273 V 296.66 h -11.39 v 33.274"
         style="fill:#00452a;fill-opacity:1;fill-rule:nonzero;stroke:none"
         id="path62"
         inkscape:connector-curvature="0" /><path
         d="m 1765.82,550.957 c -31.42,5.781 -58.03,20.996 -88.21,28.199 0,-7.437 0,-38.109 0,-50.394 41.07,-10.621 83.73,-32.192 126.21,-14.473 13.72,12.566 31.46,28.774 42.08,54.359 -24.26,-14.175 -51.31,-22.968 -80.08,-17.691"
         style="fill:#00452a;fill-opacity:1;fill-rule:nonzero;stroke:none"
         id="path64"
         inkscape:connector-curvature="0" /><path
         d="m 1637.64,528.957 c 0,12.266 0,42.93 0,50.391 -30.19,-7.2 -56.81,-22.434 -88.22,-28.215 -28.78,-5.274 -54.21,3.894 -78.45,18.047 10.21,-23.383 25.65,-40.633 40.44,-54.696 42.49,-17.718 85.15,3.832 126.23,14.473"
         style="fill:#00452a;fill-opacity:1;fill-rule:nonzero;stroke:none"
         id="path66"
         inkscape:connector-curvature="0" /><path
         d="m 1534.3,488.438 c 28.49,-24.848 66.17,-38.208 103.86,-40.754 0,3.507 0,43.828 0,60.472 -33.77,-9.125 -67.95,-24.531 -103.86,-19.718"
         style="fill:#00452a;fill-opacity:1;fill-rule:nonzero;stroke:none"
         id="path68"
         inkscape:connector-curvature="0" /><path
         d="m 1677.61,508.156 v -60.551 c 37.79,5.223 76.39,16.586 106.5,40.833 -36.55,-4.622 -71.69,10.484 -106.5,19.718"
         style="fill:#00452a;fill-opacity:1;fill-rule:nonzero;stroke:none"
         id="path70"
         inkscape:connector-curvature="0" /><path
         d="m 1849.67,643.273 c -22.21,-13.882 -49.83,-23.574 -74.68,-20.031 -33.24,4.742 -63.54,16.492 -94.22,28.293 -7.31,2.813 -7.45,17.305 -6.45,26.168 0.31,2.918 4.64,1.43 7.19,1.086 30.59,-4.191 59.07,-13.578 86.82,-26 8.29,7.191 26.46,18.988 26.46,18.988 0,0 -13.84,15.157 -19.9,23.098 -32.43,0 -66.16,0 -98.6,0 3,7.461 2.1,33.227 -0.45,50.473 -2.77,18.722 -9.31,36.156 -5.37,54.933 3.95,4.309 6.65,10.219 6.65,15.989 0,10.953 -8.21,19.832 -19.16,19.832 -10.93,0 -19.8,-8.879 -19.8,-19.832 0,-5.872 2.53,-11.895 6.59,-16.204 4.75,-18.511 1.4,-26.632 -2.92,-54.726 -2.64,-17.281 -5.12,-42.93 -1.65,-50.613 l -98.66,0.05 -17.1,-22.922 c 0,0 15.08,-11.367 21.71,-19.066 22.26,6.422 42.24,17.336 65.84,21.832 9.69,1.879 27.7,6.18 30.14,4.215 1.98,-1.59 3.37,-23.527 -6.78,-27.645 -6.98,-2.836 -15.83,-6.105 -23.31,-8.132 -31.35,-8.551 -60.72,-24.243 -93.45,-21.118 -17.07,1.633 -35.3,9.68 -50.57,19.965 -0.44,5.196 -0.5,11.289 -0.5,11.289 -0.23,51.86 20.83,102.907 57.79,140.055 36.14,36.313 83.62,56.297 133.68,56.297 51.41,0 99.58,-20.512 135.62,-57.762 35.81,-37 55.51,-86.008 55.51,-138.015 0,0 -0.16,-5.938 -0.43,-10.497 z m 13.57,10.965 c -0.13,55.266 -21.13,107.336 -59.2,146.676 -38.55,39.844 -90.06,61.703 -145.07,61.703 -53.58,0 -104.37,-21.297 -143,-60.097 -38.83,-39.028 -61.21,-92.454 -61.61,-146.934 0,-0.164 0.02,-0.336 0.02,-0.496 l -0.05,0.004 0.03,-3.934 0.02,-0.055 c 0.21,-20.589 4.35,-40.062 8.91,-55.289 23.34,-19.304 53.81,-28.128 84.09,-24.48 32.28,3.879 59.55,21.859 90.78,28.43 0.35,0 0.35,0 0.35,0 0,0 -0.08,53.113 0,53.136 8.32,4.024 28.52,6.286 39.1,0.145 0.05,-0.024 0.05,-52.227 0,-51.969 39.14,-12.433 76.66,-35.695 119.48,-29.215 20.1,3.032 39.09,10.278 55.38,22.629 6.69,17.93 10.72,35.274 10.77,56.18 0.04,1.797 0.06,3.566 0.06,3.566 h -0.06"
         style="fill:#00452a;fill-opacity:1;fill-rule:nonzero;stroke:none"
         id="path72"
         inkscape:connector-curvature="0" /><path
         d="M 1827.25,167.723 H 59.2422"
         style="fill:none;stroke:#61849c;stroke-width:10;stroke-linecap:butt;stroke-linejoin:miter;stroke-miterlimit:4;stroke-dasharray:none;stroke-opacity:1"
         id="path74"
         inkscape:connector-curvature="0" /><path
         d="m 162.441,85.1563 h 11.993 V 11.9922 h 35.019 V 1.43359 H 162.441 V 85.1563"
         style="fill:#00452a;fill-opacity:1;fill-rule:nonzero;stroke:none"
         id="path76"
         inkscape:connector-curvature="0" /><path
         d="M 254.238,85.1563 H 266.23 V 1.43359 H 254.238 V 85.1563"
         style="fill:#00452a;fill-opacity:1;fill-rule:nonzero;stroke:none"
         id="path78"
         inkscape:connector-curvature="0" /><path
         d="m 330.555,11.2695 h 8.992 c 10.797,0 20.508,2.2852 20.508,13.5547 0,12.9492 -11.391,14.7539 -21.703,14.7539 h -7.797 z m 0,38.1446 h 6.593 c 11.633,0 21.469,1.0742 21.469,13.4297 0,9.9609 -8.512,12.4765 -15.472,12.4765 h -12.59 z m -11.992,35.7422 h 22.664 c 17.39,0 29.386,-5.6446 29.386,-21.1133 0,-11.5157 -6.718,-17.2657 -17.273,-19.9102 V 43.8945 C 364.734,42.9375 372.77,35.5 372.77,23.75 372.77,5.75391 357.898,1.43359 340.867,1.43359 H 318.563 V 85.1563"
         style="fill:#00452a;fill-opacity:1;fill-rule:nonzero;stroke:none"
         id="path80"
         inkscape:connector-curvature="0" /><path
         d="m 435.555,49.1719 h 10.191 c 11.395,0 18.113,5.039 18.113,13.0742 0,7.5586 -5.757,12.3555 -16.793,12.3555 h -11.511 z m -11.992,35.9844 h 20.507 c 16.547,0 32.5,-2.6446 32.5,-22.6758 0,-10.1836 -7.554,-17.3828 -17.273,-19.0625 v -0.2422 c 3.723,-1.4375 5.519,-3.2344 8.16,-8.4024 L 483.285,1.43359 h -13.668 l -12.84,29.02731 c -3.714,8.1524 -7.675,8.1524 -14.027,8.1524 h -7.195 V 1.43359 H 423.563 V 85.1563"
         style="fill:#00452a;fill-opacity:1;fill-rule:nonzero;stroke:none"
         id="path82"
         inkscape:connector-curvature="0" /><path
         d="M 561.66,73.8789 544.992,32.3828 h 33.34 z m -5.879,11.2774 h 12.594 L 603.758,1.43359 H 590.684 L 582.168,22.5508 H 541.152 L 532.637,1.43359 h -12.59 l 35.734,83.72271"
         style="fill:#00452a;fill-opacity:1;fill-rule:nonzero;stroke:none"
         id="path84"
         inkscape:connector-curvature="0" /><path
         d="m 658.867,49.1719 h 10.196 c 11.39,0 18.113,5.039 18.113,13.0742 0,7.5586 -5.758,12.3555 -16.793,12.3555 h -11.516 z m -11.992,35.9844 h 20.508 c 16.555,0 32.5,-2.6446 32.5,-22.6758 0,-10.1836 -7.555,-17.3828 -17.27,-19.0625 v -0.2422 c 3.723,-1.4375 5.52,-3.2344 8.16,-8.4024 L 706.602,1.43359 H 692.93 L 680.098,30.4609 c -3.719,8.1524 -7.676,8.1524 -14.032,8.1524 h -7.199 V 1.43359 H 646.875 V 85.1563"
         style="fill:#00452a;fill-opacity:1;fill-rule:nonzero;stroke:none"
         id="path86"
         inkscape:connector-curvature="0" /><path
         d="m 773.844,36.4531 -32.742,48.7032 h 14.031 l 24.945,-37.5391 24.348,37.5391 h 14.031 L 785.836,36.4531 V 1.43359 H 773.844 V 36.4531"
         style="fill:#00452a;fill-opacity:1;fill-rule:nonzero;stroke:none"
         id="path88"
         inkscape:connector-curvature="0" /><path
         d="m 939.199,52.5273 c 5.035,2.4063 12.594,7.5625 12.594,14.629 0,7.6796 -4.199,10.3242 -9.957,10.3242 -5.516,0 -10.07,-3.6016 -10.07,-10.8008 0,-5.6328 3.836,-10.1953 7.433,-14.1524 z m 0.36,-43.41792 c 7.796,0 12.836,5.03902 15.472,8.03902 L 934.879,40.7813 C 928.527,36.4531 923.125,32.5 923.125,24.2266 c 0,-9.2383 7.801,-15.11722 16.434,-15.11722 z m 38.617,37.53902 c -1.078,-13.5429 -4.797,-21.3437 -9.59,-28.6601 L 983.219,1.43359 h -14.996 l -6.836,8.15625 C 955.391,2.75391 948.074,0 937.398,0 c -16.546,0 -26.98,9.35547 -26.98,23.3906 0,12.711 7.434,19.9024 18.703,24.461 -4.433,5.4023 -8.633,11.0351 -8.633,19.0742 0,13.4258 9.836,19.668 21.828,19.668 10.918,0 20.75,-5.7657 20.75,-18.9493 0,-10.6797 -9.476,-17.8711 -18.347,-21.8359 l 17.023,-19.4219 c 3.246,5.1563 4.563,10.6719 5.164,20.2617 h 11.27"
         style="fill:#00452a;fill-opacity:1;fill-rule:nonzero;stroke:none"
         id="path90"
         inkscape:connector-curvature="0" /><path
         d="m 1094.72,73.8789 -16.67,-41.4961 h 33.34 z m -5.88,11.2774 h 12.59 l 35.38,-83.72271 h -13.06 l -8.52,21.11721 h -41.01 L 1065.7,1.43359 h -12.6 l 35.74,83.72271"
         style="fill:#00452a;fill-opacity:1;fill-rule:nonzero;stroke:none"
         id="path92"
         inkscape:connector-curvature="0" /><path
         d="m 1191.93,49.1719 h 10.2 c 11.38,0 18.1,5.039 18.1,13.0742 0,7.5586 -5.75,12.3555 -16.79,12.3555 h -11.51 z m -11.99,35.9844 h 20.51 c 16.55,0 32.5,-2.6446 32.5,-22.6758 0,-10.1836 -7.56,-17.3828 -17.28,-19.0625 v -0.2422 c 3.72,-1.4375 5.52,-3.2344 8.16,-8.4024 l 15.83,-33.33981 h -13.67 l -12.83,29.02731 c -3.72,8.1524 -7.68,8.1524 -14.03,8.1524 h -7.2 V 1.43359 h -11.99 V 85.1563"
         style="fill:#00452a;fill-opacity:1;fill-rule:nonzero;stroke:none"
         id="path94"
         inkscape:connector-curvature="0" /><path
         d="m 1343.46,71.3555 c -5.28,3.125 -11.15,4.6797 -17.27,4.6797 -19.31,0 -32.14,-13.9063 -32.14,-32.7422 0,-19.668 14.15,-32.7344 31.54,-32.7344 6,0 14.04,1.5508 18.23,4.0703 L 1344.54,3 c -6.36,-2.640625 -14.15,-3 -19.06,-3 -26.51,0 -44.15,17.0313 -44.15,43.6523 0,25.7891 18.72,42.9415 44.26,42.9415 6.48,0 12.83,-0.9571 18.83,-3.5938 l -0.96,-11.6445"
         style="fill:#00452a;fill-opacity:1;fill-rule:nonzero;stroke:none"
         id="path96"
         inkscape:connector-curvature="0" /><path
         d="m 1391.26,85.1563 h 11.99 V 50.1289 h 40.06 v 35.0274 h 11.99 V 1.43359 h -11.99 V 39.5781 h -40.06 V 1.43359 h -11.99 V 85.1563"
         style="fill:#00452a;fill-opacity:1;fill-rule:nonzero;stroke:none"
         id="path98"
         inkscape:connector-curvature="0" /><path
         d="m 1508.97,85.1563 h 11.99 V 1.43359 h -11.99 V 85.1563"
         style="fill:#00452a;fill-opacity:1;fill-rule:nonzero;stroke:none"
         id="path100"
         inkscape:connector-curvature="0" /><path
         d="m 1610.59,1.43359 h -14.99 l -31.54,83.72271 h 13.43 l 25.79,-73.1641 h 0.23 l 26.52,73.1641 h 12.58 L 1610.59,1.43359"
         style="fill:#00452a;fill-opacity:1;fill-rule:nonzero;stroke:none"
         id="path102"
         inkscape:connector-curvature="0" /><path
         d="m 1686.33,85.1563 h 46.9 V 74.6016 h -34.9 V 50.1289 h 31.77 V 39.5781 h -31.77 V 11.9922 h 34.9 V 1.43359 h -46.9 V 85.1563"
         style="fill:#00452a;fill-opacity:1;fill-rule:nonzero;stroke:none"
         id="path104"
         inkscape:connector-curvature="0" /><path
         d="m 1822.14,72.5586 c -6.11,2.4023 -9.47,3.4766 -15.7,3.4766 -6.72,0 -14.64,-2.3946 -14.64,-11.1524 0,-16.0742 35.99,-12.3555 35.99,-39.9414 C 1827.79,7.07031 1813.99,0 1797.2,0 c -5.88,0 -11.63,1.67969 -17.14,3.47656 l 1.2,11.15234 c 4.07,-1.6797 11.27,-4.0703 17.38,-4.0703 6.84,0 16.43,3.8359 16.43,13.668 0,18.7109 -35.98,13.5468 -35.98,39.582 0,14.8633 11.76,22.7852 26.86,22.7852 5.52,0 12.12,-0.9571 17.87,-3 l -1.68,-11.0352"
         style="fill:#00452a;fill-opacity:1;fill-rule:nonzero;stroke:none"
         id="path106"
         inkscape:connector-curvature="0" /></g></g></svg>