<?xml version="1.0" encoding="UTF-8" standalone="no"?>
<!-- Created with Inkscape (http://www.inkscape.org/) -->

<svg
   xmlns:dc="http://purl.org/dc/elements/1.1/"
   xmlns:cc="http://creativecommons.org/ns#"
   xmlns:rdf="http://www.w3.org/1999/02/22-rdf-syntax-ns#"
   xmlns:svg="http://www.w3.org/2000/svg"
   xmlns="http://www.w3.org/2000/svg"
   xmlns:sodipodi="http://sodipodi.sourceforge.net/DTD/sodipodi-0.dtd"
   xmlns:inkscape="http://www.inkscape.org/namespaces/inkscape"
   width="41"
   height="21.200001"
   viewBox="0 0 10.847916 5.609167"
   version="1.1"
   id="svg8"
   inkscape:version="0.92.4 (5da689c313, 2019-01-14)"
   sodipodi:docname="view.svg"
   inkscape:export-filename="C:\Users\geoffandrews\source\repos\aptest\src\images\dl.png"
   inkscape:export-xdpi="96.107697"
   inkscape:export-ydpi="96.107697">
  <defs
     id="defs2" />
  <sodipodi:namedview
     id="base"
     pagecolor="#ffffff"
     bordercolor="#666666"
     borderopacity="1.0"
     inkscape:pageopacity="0.0"
     inkscape:pageshadow="2"
     inkscape:zoom="15.839192"
     inkscape:cx="27.060867"
     inkscape:cy="13.143756"
     inkscape:document-units="px"
     inkscape:current-layer="layer1"
     showgrid="false"
     showguides="true"
     inkscape:guide-bbox="true"
     units="px"
     inkscape:window-width="2560"
     inkscape:window-height="1377"
     inkscape:window-x="-8"
     inkscape:window-y="-8"
     inkscape:window-maximized="1" />
  <metadata
     id="metadata5">
    <rdf:RDF>
      <cc:Work
         rdf:about="">
        <dc:format>image/svg+xml</dc:format>
        <dc:type
           rdf:resource="http://purl.org/dc/dcmitype/StillImage" />
        <dc:title></dc:title>
      </cc:Work>
    </rdf:RDF>
  </metadata>
  <g
     inkscape:label="Layer 1"
     inkscape:groupmode="layer"
     id="layer1"
     transform="translate(0,-291.39082)">
    <path
       style="fill:#000000;stroke:#000000;stroke-width:0.05095353px;stroke-linecap:butt;stroke-linejoin:miter;stroke-opacity:1"
       d="m 5.459707,291.42509 c -3.154855,0.0433 -5.42655099,2.7708 -5.42655099,2.7708 0,0 5.19337899,6.2354 10.78055199,0 -1.833291,-2.04599 -3.624196,-2.74932 -5.203131,-2.7708 -0.05052,-7.7e-4 -0.100793,-7.7e-4 -0.15087,0 z m -0.03573,0.16461 a 2.695785,2.6057108 0 0 1 2.69576,2.60569 2.695785,2.6057108 0 0 1 -2.69576,2.6058 2.695785,2.6057108 0 0 1 -2.69576,-2.6058 2.695785,2.6057108 0 0 1 2.69576,-2.60569 z m 0,1.11789 a 1.5392328,1.4878039 0 0 0 -1.539255,1.4878 1.5392328,1.4878039 0 0 0 1.539255,1.48781 1.5392328,1.4878039 0 0 0 1.539254,-1.48781 1.5392328,1.4878039 0 0 0 -0.03543,-0.3089 0.73544922,0.71087642 0 0 1 -0.579397,0.27447 0.73544922,0.71087642 0 0 1 -0.735443,-0.71086 0.73544922,0.71087642 0 0 1 0.395786,-0.63015 1.5392328,1.4878039 0 0 0 -0.58477,-0.11236 z"
       id="path839"
       inkscape:connector-curvature="0"
       inkscape:export-xdpi="96.107697"
       inkscape:export-ydpi="96.107697" />
  </g>
</svg>
